<?xml version="1.0" encoding="UTF-8" standalone="no"?>
<!DOCTYPE svg PUBLIC "-//W3C//DTD SVG 1.1//EN" "http://www.w3.org/Graphics/SVG/1.1/DTD/svg11.dtd">
<svg version="1.1" xmlns="http://www.w3.org/2000/svg" xmlns:xlink="http://www.w3.org/1999/xlink" preserveAspectRatio="xMidYMid meet" viewBox="0 0 640 640" width="640" height="640"><defs><path d="M119.97 188.39C119.97 217.91 96 241.87 66.48 241.87C36.96 241.87 13 217.91 13 188.39C13 158.87 36.96 134.9 66.48 134.9C96 134.9 119.97 158.87 119.97 188.39Z" id="e3OqckhpAe"></path><path d="M377.78 126.49C377.78 156.01 353.82 179.97 324.3 179.97C294.78 179.97 270.81 156.01 270.81 126.49C270.81 96.97 294.78 73.01 324.3 73.01C353.82 73.01 377.78 96.97 377.78 126.49Z" id="a1M6rvvR3C"></path><path d="M637 190.3C637 220.87 612.18 245.69 581.61 245.69C551.03 245.69 526.21 220.87 526.21 190.3C526.21 159.73 551.03 134.9 581.61 134.9C612.18 134.9 637 159.73 637 190.3Z" id="ai09Zsy2Z"></path><path d="M225.02 374.1L326.78 141.26L424.87 374.1L595.51 187.73L542.54 563.74L114.91 559.81L61.94 187.73L225.02 374.1Z" id="a1mmAcsk03"></path></defs><g><g><g><use xlink:href="#e3OqckhpAe" opacity="1" fill="#0e7cba" fill-opacity="1"></use></g><g><use xlink:href="#a1M6rvvR3C" opacity="1" fill="#0e7cba" fill-opacity="1"></use></g><g><use xlink:href="#ai09Zsy2Z" opacity="1" fill="#0e7cba" fill-opacity="1"></use></g><g><use xlink:href="#a1mmAcsk03" opacity="1" fill="#0e7cba" fill-opacity="1"></use></g></g></g></svg>